<svg width="584" height="230" viewBox="0 0 584 230" fill="none" xmlns="http://www.w3.org/2000/svg">
<g clip-path="url(#clip0_113_245)">
<path d="M27.4471 124.481C30.95 127.495 37.7318 129.002 47.7925 129.002H51.6968C51.6968 129.002 51.6969 129.002 51.6969 129.002V129.002C51.6969 129.002 51.6969 129.002 51.6969 129.002L83.6563 129.551C83.6565 129.551 83.6568 129.551 83.6568 129.552V129.552C83.6568 129.552 83.657 129.552 83.6573 129.552H87.4448C97.5055 129.552 104.287 128.045 107.79 125.031C111.212 122.017 112.922 116.009 112.922 107.007V92.4047C112.922 89.2276 113.35 86.6208 114.206 84.5842C115.061 82.5476 116.344 80.898 118.055 79.6353C121.191 77.2729 125.753 76.0917 131.741 76.0917H133.842C134.841 76.0917 135.651 75.2818 135.651 74.2828V69.1636C135.651 68.1646 134.841 67.3547 133.842 67.3547H131.741C128.93 67.3547 126.344 67.0696 123.981 66.4994C121.659 65.9291 119.684 65.0534 118.055 63.8722C116.344 62.6502 115.061 61.0413 114.206 59.0455C113.35 57.0089 112.922 54.402 112.922 51.225V36.5616C112.922 27.5191 111.212 21.5112 107.79 18.5378C104.45 15.5644 97.6685 14.0777 87.4448 14.0777H83.6602C83.6583 14.0777 83.6568 14.0792 83.6568 14.0811V14.0811C83.6568 14.083 83.6552 14.0846 83.6533 14.0846L51.7032 13.5286C51.7029 13.5286 51.7028 13.5284 51.7028 13.5282V13.5282C51.7028 13.528 51.7026 13.5278 51.7024 13.5278H47.7925C37.5689 13.5278 30.7871 15.0145 27.4471 17.9879C23.9849 20.9613 22.2538 26.9692 22.2538 36.0117V50.6751C22.2538 56.7034 21.1744 60.9191 19.0156 63.3223C16.8568 65.644 12.9058 66.8048 7.16268 66.8048H1.8842C0.885207 66.8048 0.0753632 67.6147 0.0753632 68.6137V73.7329C0.0753632 74.7319 0.885207 75.5418 1.8842 75.5418H7.16268C12.8651 75.5418 16.8161 76.723 19.0156 79.0854C21.1744 81.4886 22.2538 85.7451 22.2538 91.8548V106.457C22.2538 115.5 23.9849 121.507 27.4471 124.481Z" fill="#CE4257"/>
<path d="M49.5801 48.3573C49.5801 47.3583 50.3899 46.5485 51.3889 46.5485H60.291C61.1073 46.5485 61.8225 47.0952 62.0366 47.883L66.0391 62.6114C66.523 64.392 69.0495 64.3902 69.5308 62.6089L73.5096 47.8854C73.7228 47.0965 74.4385 46.5485 75.2558 46.5485H84.2246C85.2236 46.5485 86.0334 47.3583 86.0334 48.3573V96.0355C86.0334 97.0344 85.2236 97.8443 84.2246 97.8443H77.3066H68.5096H58.3069H51.3889C50.3899 97.8443 49.5801 97.0344 49.5801 96.0355V48.3573Z" fill="white"/>
</g>
<path d="M174.241 29.993H189.985L197.946 59.2888L205.863 29.993H221.696V96.7697H210.335V43.2767L203.268 72.4832H192.758L185.601 43.2767V96.7697H174.241V29.993Z" fill="white"/>
<path d="M247.235 98.0667C242.046 98.0667 237.842 96.5908 234.622 93.6388C231.431 90.6571 229.836 86.3782 229.836 80.8023C229.836 77.2838 230.462 74.4213 231.714 72.2148C232.997 69.9785 234.726 68.2491 236.903 67.0265C239.109 65.804 241.599 64.9691 244.372 64.5218C247.145 64.0448 250.052 63.8062 253.094 63.8062H262.173V61.6146C262.173 59.8256 261.696 58.4689 260.742 57.5445C259.818 56.6202 258.61 55.994 257.119 55.666C255.658 55.338 254.152 55.174 252.602 55.174C249.441 55.174 246.4 55.6064 243.478 56.4711C240.585 57.3358 237.693 58.5583 234.801 60.1386V48.957C237.902 47.7047 240.973 46.8101 244.014 46.2734C247.086 45.7069 250.187 45.4236 253.317 45.4236C258.804 45.4236 263.142 46.2138 266.333 47.7941C269.523 49.3446 271.789 51.7599 273.131 55.0398C274.503 58.2899 275.189 62.4346 275.189 67.4738C275.189 68.6367 275.159 70.1276 275.099 71.9464C275.069 73.7653 275.055 75.5842 275.055 77.4031C275.055 79.0132 275.04 80.5339 275.01 81.9652C274.98 83.3964 274.965 84.6041 274.965 85.588C274.965 86.4528 275.01 87.5858 275.099 88.9873C275.189 90.3589 275.397 91.7603 275.725 93.1916C276.053 94.6228 276.56 95.8155 277.246 96.7697H264.275C263.709 95.8155 263.291 94.921 263.023 94.0861C262.755 93.2512 262.561 92.2821 262.442 91.1789C260.682 93.5345 258.476 95.2788 255.822 96.4119C253.198 97.5151 250.336 98.0667 247.235 98.0667ZM251.528 88.9873C254.272 88.9873 256.404 88.2418 257.924 86.7509C259.475 85.2302 260.563 83.3368 261.189 81.0707C261.845 78.7747 262.173 76.4638 262.173 74.138V73.2435H256.94C254.883 73.2435 252.84 73.3926 250.813 73.6908C248.785 73.9591 247.1 74.6599 245.759 75.7929C244.447 76.8962 243.791 78.73 243.791 81.2943C243.791 83.7393 244.462 85.6328 245.803 86.9746C247.175 88.3164 249.083 88.9873 251.528 88.9873Z" fill="white"/>
<path d="M306.855 115.734C301.19 115.734 295.703 114.914 290.396 113.274V101.242C295.226 103.926 300.265 105.268 305.513 105.268C309.419 105.268 312.252 104.403 314.011 102.674C315.8 100.944 316.695 98.2158 316.695 94.4886V89.0767C314.131 93.7879 309.896 96.1435 303.993 96.1435C300.474 96.1435 297.507 95.4279 295.092 93.9966C292.707 92.5356 290.783 90.6123 289.322 88.2269C287.861 85.8117 286.803 83.143 286.147 80.2209C285.491 77.2987 285.163 74.3468 285.163 71.365C285.163 68.4429 285.476 65.476 286.102 62.4644C286.728 59.423 287.742 56.6052 289.143 54.0111C290.575 51.417 292.453 49.3297 294.779 47.7494C297.135 46.1691 300.027 45.3789 303.456 45.3789C309.598 45.3789 314.011 47.9432 316.695 53.0718L317.992 46.676H329.8V93.0126C329.8 101.034 327.996 106.818 324.388 110.367C320.78 113.945 314.936 115.734 306.855 115.734ZM307.437 85.7669C310.15 85.7669 312.371 84.3804 314.101 81.6074C315.83 78.8343 316.695 75.2711 316.695 70.9177C316.695 66.5644 315.83 63.016 314.101 60.2728C312.401 57.4998 310.195 56.1133 307.481 56.1133C304.768 56.1133 302.546 57.4998 300.817 60.2728C299.117 63.016 298.268 66.5644 298.268 70.9177C298.268 75.2711 299.117 78.8343 300.817 81.6074C302.517 84.3804 304.723 85.7669 307.437 85.7669Z" fill="white"/>
<path d="M349.345 46.676H356.68L356.323 53.0718C360.08 48.0028 365.134 45.4683 371.485 45.4683C376.226 45.4683 379.894 47.0785 382.488 50.2988C385.112 53.4893 386.424 58.2601 386.424 64.6113C386.424 69.1138 385.783 73.3777 384.5 77.4031C383.218 81.4285 381.444 84.9917 379.178 88.0927C376.912 91.1938 374.273 93.6388 371.261 95.4279C368.25 97.1871 365 98.0667 361.511 98.0667C355.786 98.0667 351.641 95.5322 349.077 90.4632L344.112 115.823H335.883L349.345 46.676ZM360.795 91.0894C364.016 91.0894 366.893 89.8967 369.428 87.5113C371.992 85.0961 374.019 81.9205 375.51 77.9845C377.001 74.0486 377.747 69.7548 377.747 65.1033C377.747 60.6605 377.016 57.4401 375.555 55.4424C374.094 53.4446 371.977 52.4457 369.204 52.4457C366.729 52.4457 364.433 53.1315 362.316 54.5031C360.199 55.8747 358.35 57.7532 356.77 60.1386C355.219 62.5241 353.997 65.2375 353.102 68.2789C352.238 71.3203 351.805 74.5257 351.805 77.8951C351.805 82.3975 352.595 85.7222 354.176 87.8691C355.786 90.016 357.992 91.0894 360.795 91.0894Z" fill="white"/>
<path d="M414.154 98.0667C408.369 98.0667 403.956 96.4417 400.915 93.1916C397.903 89.9414 396.398 85.2153 396.398 79.0132C396.398 74.7195 397.069 70.5152 398.41 66.4004C399.782 62.2557 401.66 58.5583 404.046 55.3082C406.431 52.058 409.145 49.6279 412.186 48.0177C415.347 46.3181 419.044 45.4683 423.278 45.4683C429.033 45.4683 433.416 47.0785 436.428 50.2988C439.469 53.5191 440.99 58.2154 440.99 64.3877C440.99 68.3832 440.364 72.4384 439.111 76.5533C437.889 80.6681 436.189 84.3208 434.013 87.5113C429.152 94.5483 422.533 98.0667 414.154 98.0667ZM414.422 91.0894C417.881 91.0894 420.952 89.9414 423.636 87.6455C426.349 85.3197 428.467 82.2335 429.987 78.3871C431.538 74.5108 432.313 70.2319 432.313 65.5506C432.313 60.9884 431.523 57.6638 429.943 55.5765C428.392 53.4893 426.111 52.4457 423.099 52.4457C419.64 52.4457 416.554 53.6086 413.841 55.9343C411.157 58.2303 409.04 61.3164 407.49 65.1927C405.939 69.069 405.164 73.3479 405.164 78.0293C405.164 82.5615 405.939 85.8713 407.49 87.9585C409.07 90.0458 411.381 91.0894 414.422 91.0894Z" fill="white"/>
<path d="M471.166 97.1275C460.968 97.1275 455.87 93.1766 455.87 85.275C455.87 84.5295 455.929 83.6499 456.048 82.6361C456.168 81.5925 456.391 80.2805 456.719 78.7002L466.157 33.6158H452.023L453.32 27.1752H475.683L464.949 78.8791C464.86 79.2965 464.725 80.1463 464.547 81.4285C464.397 82.7106 464.323 83.7095 464.323 84.4252C464.323 86.2142 464.979 87.6156 466.291 88.6294C467.633 89.6432 469.66 90.1502 472.374 90.1502H481.811L480.424 97.1275H471.166Z" fill="white"/>
<path d="M518.115 97.1275C507.917 97.1275 502.818 93.1766 502.818 85.275C502.818 84.5295 502.878 83.6499 502.997 82.6361C503.116 81.5925 503.34 80.2805 503.668 78.7002L513.105 33.6158H498.972L500.269 27.1752H522.632L511.898 78.8791C511.808 79.2965 511.674 80.1463 511.495 81.4285C511.346 82.7106 511.271 83.7095 511.271 84.4252C511.271 86.2142 511.927 87.6156 513.239 88.6294C514.581 89.6432 516.609 90.1502 519.322 90.1502H528.76L527.373 97.1275H518.115Z" fill="white"/>
<path d="M555 98.0667C549.215 98.0667 544.802 96.4417 541.761 93.1916C538.749 89.9414 537.243 85.2153 537.243 79.0132C537.243 74.7195 537.914 70.5152 539.256 66.4004C540.628 62.2557 542.506 58.5583 544.892 55.3082C547.277 52.058 549.99 49.6279 553.032 48.0177C556.192 46.3181 559.89 45.4683 564.124 45.4683C569.879 45.4683 574.262 47.0785 577.274 50.2988C580.315 53.5191 581.836 58.2154 581.836 64.3877C581.836 68.3832 581.209 72.4384 579.957 76.5533C578.735 80.6681 577.035 84.3208 574.858 87.5113C569.998 94.5483 563.378 98.0667 555 98.0667ZM555.268 91.0894C558.727 91.0894 561.798 89.9414 564.482 87.6455C567.195 85.3197 569.312 82.2335 570.833 78.3871C572.383 74.5108 573.159 70.2319 573.159 65.5506C573.159 60.9884 572.369 57.6638 570.788 55.5765C569.238 53.4893 566.957 52.4457 563.945 52.4457C560.486 52.4457 557.4 53.6086 554.687 55.9343C552.003 58.2303 549.886 61.3164 548.335 65.1927C546.785 69.069 546.01 73.3479 546.01 78.0293C546.01 82.5615 546.785 85.8713 548.335 87.9585C549.916 90.0458 552.227 91.0894 555.268 91.0894Z" fill="white"/>
<path d="M108.66 222.398C108.02 222.398 107.478 222.176 107.036 221.734C106.593 221.291 106.372 220.716 106.372 220.01C106.372 219.304 106.593 218.729 107.036 218.286C107.478 217.844 108.02 217.622 108.66 217.622C109.301 217.622 109.842 217.844 110.285 218.286C110.728 218.729 110.949 219.304 110.949 220.01C110.949 220.716 110.728 221.291 110.285 221.734C109.842 222.176 109.301 222.398 108.66 222.398ZM126.094 222.398C125.453 222.398 124.912 222.176 124.469 221.734C124.026 221.291 123.805 220.716 123.805 220.01C123.805 219.304 124.026 218.729 124.469 218.286C124.912 217.844 125.453 217.622 126.094 217.622C126.734 217.622 127.276 217.844 127.718 218.286C128.161 218.729 128.382 219.304 128.382 220.01C128.382 220.716 128.161 221.291 127.718 221.734C127.276 222.176 126.734 222.398 126.094 222.398ZM143.527 222.398C142.886 222.398 142.345 222.176 141.902 221.734C141.46 221.291 141.238 220.716 141.238 220.01C141.238 219.304 141.46 218.729 141.902 218.286C142.345 217.844 142.886 217.622 143.527 217.622C144.167 217.622 144.709 217.844 145.152 218.286C145.594 218.729 145.816 219.304 145.816 220.01C145.816 220.716 145.594 221.291 145.152 221.734C144.709 222.176 144.167 222.398 143.527 222.398ZM152.3 200.924H155.083L157.103 218.046L159.505 206.716H162.486L164.916 218.074L166.936 200.924H169.719L166.569 222.016H163.871L161.003 209.485L158.149 222.016H155.451L152.3 200.924ZM172.517 200.924H185.034V203.325H175.37V209.57H184.61V211.971H175.37V219.614H185.302V222.016H172.517V200.924ZM189.512 200.924H195.756C197.904 200.924 199.566 201.39 200.743 202.322C201.911 203.255 202.495 204.578 202.495 206.292C202.495 206.951 202.415 207.535 202.255 208.044C202.095 208.543 201.869 208.972 201.577 209.33C201.275 209.687 200.894 209.989 200.433 210.234C199.971 210.469 199.425 210.634 198.794 210.728C200.188 210.935 201.275 211.524 202.057 212.494C202.839 213.464 203.23 214.712 203.23 216.238C203.23 218.14 202.603 219.577 201.351 220.547C200.089 221.526 198.224 222.016 195.756 222.016H189.512V200.924ZM195.7 209.626C197.094 209.626 198.092 209.358 198.695 208.821C199.307 208.294 199.613 207.46 199.613 206.32C199.613 205.218 199.312 204.437 198.709 203.975C198.097 203.504 197.094 203.269 195.7 203.269H192.38V209.626H195.7ZM195.756 219.671C197.395 219.671 198.577 219.379 199.302 218.795C200.009 218.211 200.362 217.26 200.362 215.941C200.362 214.566 199.99 213.554 199.246 212.904C198.492 212.263 197.329 211.943 195.756 211.943H192.38V219.671H195.756ZM212.851 222.426C211.843 222.426 210.84 222.317 209.841 222.101C208.843 221.884 207.84 221.569 206.832 221.154V218.117C207.897 218.795 208.923 219.299 209.912 219.629C210.863 219.949 211.829 220.109 212.808 220.109C214.249 220.109 215.375 219.789 216.185 219.148C216.985 218.508 217.386 217.58 217.386 216.365C217.386 215.357 217.112 214.58 216.566 214.034C216.265 213.723 215.883 213.469 215.422 213.271C214.97 213.073 214.391 212.894 213.684 212.734L212.158 212.381C211.207 212.164 210.374 211.896 209.658 211.576C208.951 211.256 208.363 210.855 207.892 210.375C207.007 209.49 206.564 208.289 206.564 206.772C206.564 204.861 207.2 203.344 208.471 202.223C209.074 201.687 209.794 201.272 210.633 200.98C211.48 200.688 212.441 200.542 213.515 200.542C214.334 200.542 215.186 200.632 216.072 200.811C216.505 200.905 216.957 201.023 217.428 201.164C217.908 201.296 218.398 201.456 218.897 201.644V204.54C218.445 204.248 218.002 204.003 217.569 203.806C217.145 203.598 216.722 203.424 216.298 203.283C215.422 203 214.546 202.859 213.67 202.859C212.323 202.859 211.254 203.175 210.463 203.806C209.681 204.437 209.29 205.303 209.29 206.405C209.29 206.885 209.356 207.29 209.488 207.62C209.63 207.94 209.823 208.218 210.068 208.454C210.604 208.962 211.56 209.377 212.935 209.697L214.433 210.036C216.383 210.479 217.819 211.204 218.742 212.212C219.655 213.182 220.112 214.519 220.112 216.224C220.112 217.297 219.947 218.216 219.618 218.979C219.288 219.732 218.836 220.354 218.261 220.843C217.028 221.898 215.224 222.426 212.851 222.426ZM224.873 219.614H229.295V203.325H224.873V200.924H236.585V203.325H232.163V219.614H236.585V222.016H224.873V219.614ZM246.757 203.325H240.131V200.924H256.222V203.325H249.625V222.016H246.757V203.325ZM259.683 200.924H272.2V203.325H262.537V209.57H271.776V211.971H262.537V219.614H272.469V222.016H259.683V200.924ZM302.25 222.426C300.931 222.426 299.74 222.19 298.675 221.719C297.62 221.248 296.716 220.528 295.963 219.558C294.475 217.627 293.731 214.943 293.731 211.505C293.731 209.207 294.07 207.243 294.748 205.614C295.426 203.975 296.401 202.723 297.672 201.856C298.953 200.98 300.479 200.542 302.25 200.542C303.163 200.542 303.983 200.632 304.708 200.811C305.442 200.99 306.182 201.286 306.926 201.701V204.625C306.238 204.051 305.489 203.613 304.679 203.311C303.86 203.01 303.045 202.859 302.235 202.859C300.399 202.859 299.019 203.575 298.096 205.007C297.173 206.438 296.712 208.6 296.712 211.491C296.712 217.236 298.562 220.109 302.264 220.109C303.074 220.109 303.888 219.958 304.708 219.657C305.499 219.355 306.238 218.917 306.926 218.343V221.267C306.182 221.653 305.438 221.945 304.694 222.143C303.94 222.332 303.125 222.426 302.25 222.426ZM317.903 222.426C315.52 222.426 313.749 221.526 312.591 219.727C311.432 217.938 310.853 215.192 310.853 211.491C310.853 207.79 311.437 205.044 312.605 203.255C313.782 201.446 315.548 200.542 317.903 200.542C319.061 200.542 320.088 200.759 320.983 201.192C321.877 201.625 322.626 202.313 323.229 203.255C324.387 205.063 324.967 207.808 324.967 211.491C324.967 215.164 324.387 217.905 323.229 219.713C322.626 220.655 321.877 221.343 320.983 221.776C320.088 222.209 319.061 222.426 317.903 222.426ZM317.903 220.109C319.353 220.109 320.399 219.445 321.039 218.117C321.67 216.827 321.986 214.618 321.986 211.491C321.986 208.364 321.67 206.151 321.039 204.851C320.399 203.523 319.353 202.859 317.903 202.859C316.471 202.859 315.435 203.523 314.795 204.851C314.154 206.207 313.834 208.421 313.834 211.491C313.834 214.552 314.154 216.761 314.795 218.117C315.435 219.445 316.471 220.109 317.903 220.109ZM327.849 200.924H331.663L335.308 211.661L338.981 200.924H342.81V222.016H340.168V203.382L336.41 214.5H334.248L330.476 203.382V222.016H327.849V200.924ZM346.907 219.614H351.329V203.325H346.907V200.924H358.618V203.325H354.196V219.614H358.618V222.016H346.907V219.614ZM363.464 200.924H367.081L374.201 218.286V200.924H376.956V222.016H373.339L366.219 204.653V222.016H363.464V200.924ZM388.823 222.426C387.476 222.426 386.28 222.181 385.235 221.691C384.199 221.201 383.318 220.486 382.593 219.544C381.114 217.613 380.375 214.933 380.375 211.505C380.375 208.02 381.128 205.322 382.635 203.41C384.142 201.498 386.219 200.542 388.865 200.542C389.788 200.542 390.655 200.665 391.465 200.91C392.294 201.173 393.075 201.555 393.81 202.054V204.978C393.405 204.592 393 204.267 392.595 204.003C392.199 203.74 391.823 203.528 391.465 203.368C391.05 203.189 390.627 203.062 390.193 202.986C389.76 202.902 389.332 202.859 388.908 202.859C387.071 202.859 385.687 203.575 384.754 205.007C383.822 206.438 383.356 208.609 383.356 211.519C383.356 213.007 383.469 214.284 383.695 215.348C383.921 216.403 384.26 217.283 384.712 217.99C385.607 219.402 386.991 220.109 388.865 220.109C389.487 220.109 390.038 220.034 390.518 219.883C390.744 219.807 390.966 219.718 391.182 219.614C391.399 219.501 391.606 219.365 391.804 219.205V213.54H388.738V211.194H394.53V220.278C393.758 220.994 392.901 221.526 391.959 221.875C390.999 222.242 389.953 222.426 388.823 222.426ZM422.051 222.426C421.043 222.426 420.04 222.317 419.042 222.101C418.043 221.884 417.04 221.569 416.033 221.154V218.117C417.097 218.795 418.123 219.299 419.112 219.629C420.064 219.949 421.029 220.109 422.009 220.109C423.45 220.109 424.575 219.789 425.385 219.148C426.186 218.508 426.586 217.58 426.586 216.365C426.586 215.357 426.313 214.58 425.766 214.034C425.465 213.723 425.084 213.469 424.622 213.271C424.17 213.073 423.591 212.894 422.884 212.734L421.359 212.381C420.407 212.164 419.574 211.896 418.858 211.576C418.152 211.256 417.563 210.855 417.092 210.375C416.207 209.49 415.764 208.289 415.764 206.772C415.764 204.861 416.4 203.344 417.671 202.223C418.274 201.687 418.995 201.272 419.833 200.98C420.681 200.688 421.641 200.542 422.715 200.542C423.534 200.542 424.387 200.632 425.272 200.811C425.705 200.905 426.157 201.023 426.628 201.164C427.109 201.296 427.598 201.456 428.097 201.644V204.54C427.645 204.248 427.203 204.003 426.769 203.806C426.346 203.598 425.922 203.424 425.498 203.283C424.622 203 423.746 202.859 422.87 202.859C421.523 202.859 420.454 203.175 419.663 203.806C418.882 204.437 418.491 205.303 418.491 206.405C418.491 206.885 418.557 207.29 418.689 207.62C418.83 207.94 419.023 208.218 419.268 208.454C419.805 208.962 420.761 209.377 422.136 209.697L423.633 210.036C425.583 210.479 427.019 211.204 427.942 212.212C428.856 213.182 429.312 214.519 429.312 216.224C429.312 217.297 429.148 218.216 428.818 218.979C428.488 219.732 428.036 220.354 427.462 220.843C426.228 221.898 424.424 222.426 422.051 222.426ZM439.936 222.426C437.554 222.426 435.783 221.526 434.624 219.727C433.466 217.938 432.887 215.192 432.887 211.491C432.887 207.79 433.471 205.044 434.639 203.255C435.816 201.446 437.582 200.542 439.936 200.542C441.095 200.542 442.121 200.759 443.016 201.192C443.911 201.625 444.66 202.313 445.262 203.255C446.421 205.063 447 207.808 447 211.491C447 215.164 446.421 217.905 445.262 219.713C444.66 220.655 443.911 221.343 443.016 221.776C442.121 222.209 441.095 222.426 439.936 222.426ZM439.936 220.109C441.387 220.109 442.432 219.445 443.073 218.117C443.704 216.827 444.019 214.618 444.019 211.491C444.019 208.364 443.704 206.151 443.073 204.851C442.432 203.523 441.387 202.859 439.936 202.859C438.505 202.859 437.469 203.523 436.828 204.851C436.188 206.207 435.868 208.421 435.868 211.491C435.868 214.552 436.188 216.761 436.828 218.117C437.469 219.445 438.505 220.109 439.936 220.109ZM457.37 222.426C454.987 222.426 453.216 221.526 452.058 219.727C450.899 217.938 450.32 215.192 450.32 211.491C450.32 207.79 450.904 205.044 452.072 203.255C453.249 201.446 455.015 200.542 457.37 200.542C458.528 200.542 459.555 200.759 460.449 201.192C461.344 201.625 462.093 202.313 462.696 203.255C463.854 205.063 464.433 207.808 464.433 211.491C464.433 215.164 463.854 217.905 462.696 219.713C462.093 220.655 461.344 221.343 460.449 221.776C459.555 222.209 458.528 222.426 457.37 222.426ZM457.37 220.109C458.82 220.109 459.866 219.445 460.506 218.117C461.137 216.827 461.453 214.618 461.453 211.491C461.453 208.364 461.137 206.151 460.506 204.851C459.866 203.523 458.82 202.859 457.37 202.859C455.938 202.859 454.902 203.523 454.262 204.851C453.621 206.207 453.301 208.421 453.301 211.491C453.301 214.552 453.621 216.761 454.262 218.117C454.902 219.445 455.938 220.109 457.37 220.109ZM468.064 200.924H471.681L478.801 218.286V200.924H481.556V222.016H477.939L470.819 204.653V222.016H468.064V200.924Z" fill="#FFFCE4"/>
<defs>
<clipPath id="clip0_113_245">
<rect width="135.663" height="135.663" fill="white" transform="translate(0 3.72993)"/>
</clipPath>
</defs>
</svg>
